<?xml version="1.0" encoding="UTF-8"?>
<svg id="Layer_2" data-name="Layer 2" xmlns="http://www.w3.org/2000/svg" viewBox="0 0 164.65 39.73">
  <defs>
    <style>
      .cls-1 {
        fill: #fff;
      }

      .cls-2 {
        fill: #e5e5e5;
      }

      .cls-3 {
        isolation: isolate;
      }

      .cls-4 {
        fill: #ccc;
      }
    </style>
  </defs>
  <g id="b">
    <g id="c">
      <g id="d">
        <g>
          <g>
            <path class="cls-1" d="M19.71,27.17c-2.64-.86-3.71-3.21-2.48-5.38-.39.2-.7.38-1.02.53-.94.46-1.52.34-2.16-.43-.12-.15-.31-.27-.49-.37-.51-.28-.94-.58-1.19-1.11-.12-.26-.45-.46-.7-.66-.38-.3-.68-.64-.84-1.09-.06-.18-.26-.31-.38-.48-.29-.4-.76-.79-.82-1.22-.1-.65-.35-1.23-.54-1.84-.12-.4-.22-.8.01-1.21.06-.1,0-.27-.05-.39-.25-.68-.41-1.35-.07-2.05.04-.09,0-.22-.01-.33-.07-.71-.23-1.42.1-2.1.08-.17.18-.37.34-.46.31-.18.32-.43.36-.71.1-.63.28-1.22.98-1.55.1-.05.12-.21.18-.31.24-.44.35-1.05.74-1.29.54-.33.83-.77,1.18-1.2.04-.05.07-.12.13-.15.87-.39,1.36-1.16,2.15-1.62.29-.17.61-.3.92-.43.14-.06.31-.05.58-.09-.14.27-.24.46-.34.64-.41.83-.66,1.77-.44,2.6.27.99.65,2.08,1.92,2.53.18.06.37.08.6.14.02-.13.06-.25.04-.34-.09-.4.13-.47.51-.45.43.02.86.02,1.3.01.12,0,.23-.05.35-.07-.03-.1-.04-.22-.1-.3-.49-.64-.93-1.31-1.04-2.1-.14-.95.06-1.83.84-2.53.43-.38.88-.73.78-1.36.36.52.28,1.04.02,1.55-.18.35-.43.67-.58,1.03-.36.84-.24,1.66.3,2.48.42-.42.41-.89.37-1.36-.08-.92.05-1.77.81-2.47.07-.06.16-.11.23-.16l.09.06c-.06.12-.1.24-.17.35-.34.53-.43,1.1-.32,1.7.15.81.02,1.54-.71,2.13-.09.07-.07.24-.11.36.13.02.26.07.38.05.58-.11,1.19-.86,1.2-1.49,0-.25-.02-.5-.06-.75-.09-.6.07-1.1.48-1.42,0,.09.02.16,0,.22-.15.45-.1.86.06,1.31.31.92-.01,1.72-.8,2.37-.08.07-.16.14-.23.22-.02.02-.01.07-.04.2.39,0,.76.03,1.12,0,.41-.04.56.1.51.45-.01.1.02.21.03.35,1.12-.1,1.81-.66,2.26-1.49.18-.33.43-.65.5-.99.08-.4.08-.83-.01-1.23-.14-.62-.39-1.22-.58-1.83-.03-.1-.01-.21-.02-.31.15,0,.31-.03.44.02.76.27,1.4.7,1.91,1.29.12.14.28.28.45.37.56.26.94.65,1.2,1.16.06.12.14.28.26.32.78.26,1.03.84,1.19,1.48.06.24.17.4.4.56.54.36.72.91.75,1.48.02.29.15.47.36.68s.38.5.43.78c.08.39.08.8.04,1.19-.04.45-.1.87.03,1.32.17.56-.03,1.11-.23,1.65-.06.16,0,.35,0,.52-.04.45-.08.9-.15,1.35-.02.13-.11.25-.17.38-.13.28-.21.55-.22.88,0,.66-.53,1.13-1,1.59-.15.15-.26.33-.33.52-.2.5-.65.8-1.06,1.13-.14.11-.31.23-.38.38-.24.51-.64.86-1.16,1.14-.25.13-.48.32-.66.52-.5.57-1.16.72-1.88.4-.3-.14-.6-.3-1-.5.57,1.14.57,2.2.02,3.23-.55,1.02-1.49,1.66-2.73,2.02.2.15.36.26.52.37,1.43,1.03,1.5,2.86.16,3.97-.08.07-.17.13-.25.2-.15.12-.18.23,0,.37s.34.29.49.46c.29.31.3.7.06.92-.27.25-.69.25-1.07,0-.23-.15-.47-.31-.78-.52-.04.55-.08,1.03-.11,1.51-.06.02-.1.05-.16.05-.66.07-.71.03-.73-.56v-.79s-.03-.04-.07-.11c-.23.13-.44.31-.68.39-.27.09-.59.18-.85.12-.4-.09-.52-.46-.3-.79.16-.23.37-.44.59-.63.22-.19.24-.32-.01-.51-1.04-.77-1.33-1.75-.95-2.89.21-.64.74-1.06,1.33-1.44.06-.04.13-.08.24-.16v.02h-.01ZM22.12,19.16c2.09-.48,3.56-1.53,4.36-3.22,1.3-2.78.7-5.24-1.83-7.4h1.77v-1.4c.42.42.78.78,1.16,1.15.18-.34.23-.61-.13-.82-.34-.21-.68-.43-1.01-.65-.1-.07-.18-.17-.27-.25.8-.05,1.09.73,1.93.77-.07-.33-.06-.8-.19-.83-.35-.09-.34-.31-.44-.51-.19-.37-.37-.76-.92-.82-.12.26-.22.5-.34.74-.54,1.11-1.82,1.71-3.14,1.63-1.3-.08-2.61-.06-3.91-.02-.59.02-1.14-.04-1.66-.26-.87-.36-1.36-1-1.61-1.81-.11-.35-.25-.41-.53-.16-.24.22-.39.53-.59.79-.08.11-.16.3-.24.3-.37.02-.32.27-.34.46-.01.14.07.3.1.44.2-.07.4-.13.59-.21.05-.02.06-.08.11-.11.27-.15.53-.31.81-.44.06-.03.16.02.25.03-.05.06-.08.14-.14.19-.39.26-.77.52-1.18.76-.33.2-.25.42-.11.67.46-.42.92-.84,1.37-1.26.04.02.07.04.11.07v1.58h1.24s.06.09.09.13c-.15.1-.32.19-.44.32-.39.42-.85.81-1.13,1.29-.98,1.67-1.19,3.4-.46,5.21.7,1.74,2,2.9,3.93,3.52.25.08.52.1.78.14v-.83c0-.22.06-.34.36-.33.46.02.92.02,1.38,0,.27,0,.35.09.33.31-.02.26-.03.51-.04.84h-.02ZM20.16,19.58c-2.81-.55-4.56-2.04-5.3-4.39-.73-2.3-.18-4.43,1.68-6.32h-.93c.02-.37.04-.71.06-1.15-1.52,1.35-2.37,2.89-2.53,4.67-.36,3.95,1.43,6.83,5.61,8.43-1.62,1.22-2.15,2.66-1.19,4.38.55.97,1.51,1.46,2.67,1.71.13-.68.09-.78-.51-1.07-.93-.45-1.45-1.16-1.5-2.1-.05-1.11.6-1.85,1.64-2.37.12-.06.28-.19.29-.3.03-.5.01-1,.01-1.49ZM25.63,8.9c.29.34.56.59.75.88,1.08,1.6,1.44,3.32.9,5.14-.69,2.32-2.24,3.92-4.91,4.52-.11.03-.25.18-.26.29-.05.33-.03.68-.08,1.01-.06.38.07.6.47.76.66.26,1.06.76,1.27,1.36.46,1.35-.24,2.59-1.72,3.12-.11.04-.25.14-.27.23-.05.22-.04.46-.05.73,1.39-.24,2.41-.85,2.96-1.94.84-1.69.25-3.08-1.38-4.25,2.98-.96,4.71-2.86,5.46-5.48.81-2.82-.33-5.83-1.91-7.11,0,.13-.02.24,0,.35.07.3-.03.42-.38.4-.24-.02-.49,0-.84,0h-.01ZM11.59,13.04v-.83c.3.4.16.92.5,1.28.04-.01.09-.02.13-.03v-.59c.4.21-.1.76.45.86.23-.76-.39-1.15-.81-1.64-.12-.14-.17-.32-.26-.47-.08-.14-.14-.32-.27-.4-.73-.49-1.14-1.16-1.38-1.92-.03-.09.03-.2.05-.29.05-.26.1-.52.17-.77.03-.1.11-.19.16-.28.08.38.13.74.02,1.06-.18.51.14.87.38,1.24.16.24.35.48.77.36.12-.04.28.05.43.08-.27.69.16,1.5.84,1.56.05-.2.11-.4.13-.61.04-.34-.48-1.03-.82-1.16-.09-.03-.19-.21-.16-.28.13-.31,0-.54-.16-.8-.3-.47-.55-.97-.76-1.48-.16-.37-.22-.78-.34-1.19-.86.55-.55,1.4-.68,2.11-.44-.04-.44-.03-.6.29-.32.63-.27,1.27-.11,2.01.13-.43-.11-.85.28-1.15.06.45.1.89.05,1.32-.06.46.21.88.84,1.03-.03-.21-.05-.41-.08-.6-.05-.34-.04-.37.3-.46.05.68-.19,1.5.93,1.77,0,0,0-.02,0-.02ZM31.48,6.7c-.08,1.03-.5,1.9-1.09,2.69-.2.27-.32.51-.17.83.03.07-.03.25-.06.25-.55.04-.57.49-.8.78-.3.38-.07.74.05,1.11.08-.25.17-.5.25-.76l.13.03c-.04.19-.09.38-.13.57.39-.45.88-.87.52-1.56.31,0,.59.05.84-.01.36-.08.88-1.08.83-1.42-.06-.41-.08-.82-.12-1.24.06,0,.11-.02.17-.03.03.13.08.26.1.39.03.16-.02.35.06.47.26.38.14.75-.06,1.07-.26.42-.59.82-.95,1.17-.25.25-.64.39-.55.82,0,.03-.03.07-.06.1-.25.27-.46.59-.76.8-.41.28-.33.6-.26.97.54-.12.07-.64.49-.84v.63s.08.02.12.03c.37-.35.16-.9.51-1.29v.81c1.17-.24.84-1.13.99-1.87.52.4,0,.85.28,1.25.26-.32.77-.42.76-.89,0-.45-.04-.89-.05-1.34,0-.07.04-.15.07-.22h.11c.07.21.14.42.23.68.23-.52.04-.97-.09-1.42-.09-.31-.24-.5-.67-.4-.06-.76.22-1.58-.67-2.16,0,0-.02,0-.02,0ZM32.65,14.09h-.1c.1-.3.22-.61.3-.91.09-.33.15-.67.2-1.01,0-.07-.07-.21-.11-.21-.09,0-.2.04-.28.1-.32.24-.61.52-.95.73-.66.42-1.34.79-2.01,1.2-.15.09-.35.22-.39.36-.11.38-.14.78-.22,1.27,1.13-.53,2.39-.69,3.18-1.62.33.16.18.31,0,.46-.78.6-1.66,1.04-2.63,1.31-.7.2-1.07.62-1.08,1.32.14,0,.32.05.4,0,.49-.38.95-.79,1.45-1.21.28.57-.43.75-.7,1.22.37-.1.63-.15.87-.23.08-.03.16-.11.2-.19.21-.4.41-.81.61-1.21.15.5-.03.91-.43,1.26.66-.28.8-.91,1.21-1.4.27.45-.3.7-.28,1.18.21-.18.41-.27.47-.41.21-.49.4-.98.53-1.49.04-.14-.14-.32-.22-.49v-.03h-.02ZM12.97,15.55c-.08-.49-.14-.91-.22-1.32-.01-.07-.11-.15-.18-.19-.31-.2-.62-.43-.96-.58-.84-.37-1.53-.9-2.18-1.48-.23-.2-.36-.07-.36.11,0,.32.04.64.13.95.11.37.28.73.45,1.15-.47-.16-.49.1-.43.33.12.49.26.97.46,1.44.08.18.34.29.52.42-.25-.57-.33-.96-.24-1.15.18.3.33.57.51.82.43.58.44.57.72.56-.44-.32-.63-.7-.53-1.28.25.43.47.75.63,1.1.18.41.5.58,1.01.47-.22-.36-.93-.53-.57-1.15.27.29.53.56.78.84.27.3.55.54,1.05.41-.11-.26-.24-.48-.3-.72-.08-.28-.26-.41-.55-.5-.42-.13-.84-.26-1.23-.45-.55-.27-1.04-.63-1.59-.91-.34-.17-.23-.32-.18-.38.22.14.44.3.68.41.45.21.91.41,1.37.6.37.16.76.3,1.2.48v.02h.01ZM21.76,25.68c1.15-.28,1.84-1.22,1.75-2.27-.06-.76-.89-1.71-1.52-1.67-.08,1.3-.15,2.6-.23,3.95h0ZM31.06,6.51c.09-.78-.43-1.63-.99-1.75,0,.11-.02.23,0,.33.17.69-.07,1.32-.38,1.92-.36.69-.38.67.16,1.27.14.16.25.34.05.54-.19-.22-.34-.39-.5-.58-.52.57-.4,1.17-.25,1.77h-.13c-.09-.12-.17-.25-.27-.38-.22.35-.11.55.27.66-.02.2-.04.39-.05.58.04,0,.09.01.13.02.12-.19.25-.38.36-.58.2-.37.46-.72.55-1.11.06-.27.14-.4.45-.44-.09-.56-.17-1.11-.26-1.65.06,0,.12-.02.18-.03.03.22.08.43.1.65.02.23,0,.23.21.18v-1.87s.07,0,.11-.01c.07.12.14.25.25.46v.02h0ZM20.22,25.63v-1.97c-.01-.65-.04-1.3-.07-1.96-.92.19-1.58,1.21-1.56,1.93.02.95.72,1.8,1.64,2h-.01ZM11.81,7.07c.06.01.11.02.17.03-.04.34-.03.69-.13,1.02-.09.31-.29.59.23.73.02,0,.03.04.04.06.11.3.19.61.32.9.17.35.38.67.58,1.01.05-.02.1-.03.15-.05-.02-.12-.06-.25-.07-.37-.02-.25-.11-.54-.02-.76.22-.52-.02-.94-.23-1.47-.22.24-.4.43-.61.65-.18-.46.16-.67.43-.88.26-.2.28-.38.09-.61-.55-.71-.78-1.48-.59-2.34.02-.09-.01-.18-.02-.28-.65.25-1.09,1.07-.94,1.67.08-.13.15-.27.23-.4.02,0,.04.02.06.03v1.98c.07-.09.16-.16.18-.24.06-.23.09-.46.13-.69h0ZM21.66,27.85s.07.05.09.06c.78.35,1.29.88,1.28,1.69,0,.82-.47,1.38-1.31,1.71-.1.04-.21.16-.23.26-.2.87-.14.99.68,1.45.09.05.16.16.26.18.18.03.36.02.55.03-.02-.14,0-.31-.07-.43-.11-.17-.28-.31-.43-.45-.4-.35-.37-.56.04-.92.3-.26.62-.56.79-.89.61-1.15-.02-2.78-1.6-3.07-.02.13-.03.27-.05.38ZM20.23,27.44c-.09.02-.17.02-.24.04-.88.37-1.45.97-1.59,1.84-.14.84.19,1.55.92,2.08.47.34.48.58.04.98-.15.13-.29.27-.39.43-.07.1-.06.24-.09.37.18.02.41.11.54.04.63-.33,1.26-.68,1-1.52-.07-.21-.12-.35-.34-.45-.79-.34-1.22-.9-1.19-1.69.03-.72.43-1.26,1.15-1.57.31-.13.32-.3.2-.55h-.01ZM29.29,18.43c.84.04,1.32-.44,1.83-.97.15.5-.27.69-.49.98.87-.16,1.76-1.18,1.6-1.83-.14.05-.29.1-.42.15-.46.18-.91.41-1.39.53-.45.11-.93.14-1.39.16-.8.04-1,.15-1.2.8.93.44,1.48-.34,2.18-.64.04.06.07.11.11.17-.26.21-.51.42-.82.67v-.02h-.01ZM12.04,17.53c.73.35,1.29,1.11,2.25.67-.2-.59-.45-.79-1.09-.78-1.1.02-2.11-.19-3.03-.75-.09-.06-.23-.06-.35-.09-.09.72.81,1.7,1.62,1.8-.51-.41-.61-.62-.43-.93.89.83,1.22,1,1.79.93-.27-.25-.76-.32-.75-.86h0ZM27.85,18.71c.08.5-.36.69-.57,1l.09.09.89-.68s.09.07.13.1c-.18.21-.35.42-.53.63.02.02.04.05.06.07.28-.06.55-.12.84-.18.02.06.05.14.12.33.26-.27.46-.47.66-.68.02.02.05.03.07.05-.06.17-.12.35-.18.54.63-.07,1.4-.73,1.44-1.23-.98.27-1.92.06-2.88-.1-.53-.09-1.07.28-1.3.85.67.11.7-.54,1.15-.78h.01ZM14.06,6.03h.05c.33-.35.62-.77,1.02-1.05.37-.26.49-.53.49-.92,0-.65-.06-1.3.3-1.91.11-.18.19-.38.29-.58-.68.07-1.96,1.05-2.08,1.57.46-.29.69-.89,1.36-.86.03.04.05.07.08.11-.43.32-.86.64-1.38,1.03.24-.02.35-.04.39-.04.2.17.35.3.51.43-.46.55-1.2.96-1.18,1.87.67-1,.74-1.07,1.15-1.12-.08.2-.2.37-.32.55-.21.31-.43.61-.64.92,0,0-.04,0-.04,0ZM28.16,3.22c-.09-.54-1.31-1.51-2.1-1.64.63.88.62,1.82.62,2.77,0,.15.06.36.18.44.49.31.89.68,1.13,1.27.13-.71-.81-.9-.65-1.53.43.32.76.7.98,1.17.13-.87-.67-1.3-1.16-1.94.18,0,.3-.02.44-.03-.25-.36.11-.3.37-.36-.44-.34-.84-.64-1.25-.95.03-.04.06-.08.09-.11.67,0,.9.56,1.33.92h.02,0ZM15.32,19.58s.08-.1.12-.15c-.24-.25-.47-.51-.73-.75-.07-.06-.22-.1-.32-.08-1.05.14-2.1.4-3.17.13-.01,0-.04.03-.06.05.2.58.9,1.13,1.42,1.11-.04-.17-.09-.34-.16-.61.3.29.5.49.71.69.05-.04.1-.07.16-.11-.07-.1-.15-.19-.21-.29s-.09-.21-.13-.32c.04-.02.09-.03.13-.05.13.18.21.41.39.52s.46.11.79.18c-.19-.36-.64-.43-.49-.86.32.27.61.51.89.75.03-.03.07-.05.1-.08-.11-.34-.67-.52-.5-1.08.2.26.32.46.49.61.16.14.37.23.57.34ZM26.41,20.06c.12.46-.49.41-.6.76.31-.15.56-.28.82-.4.03.03.07.06.1.09-.1.16-.2.32-.32.49.47.15.67-.22.99-.43.24.37-.26.43-.35.71.25-.07.44-.09.6-.17.17-.08.32-.21.48-.31.04.03.08.05.12.08-.11.16-.22.32-.31.45.65,0,1.42-.54,1.39-1.02-.41,0-.83.06-1.22-.02-.56-.12-1.1-.34-1.65-.51-.11-.03-.27-.07-.34-.03-.31.18-.59.39-.88.59.02.04.05.08.07.12.35-.13.7-.26,1.1-.41h0ZM12.47,5.61c.12-.41.28-.94.44-1.48.05,0,.1.02.14.02.01.07.05.14.04.2-.12.6-.22,1.2-.37,1.79-.1.37.02.75.4,1.02.15-.21.31-.41.43-.63.06-.11.06-.26.06-.39,0-.68-.04-1.36-.02-2.05,0-.28.1-.57.17-.9-1.19.6-1.35,1.52-1.29,2.4v.02ZM29.75,5.94c.07-1.06.04-2.08-1.2-2.69-.01.04-.03.07-.03.09.25,1,.31,2,.05,3.01-.01.05,0,.13.03.18.15.23.32.46.48.69.28-.16.5-.66.45-.93-.14-.67-.25-1.34-.38-2.02,0-.01.04-.03.1-.08.39.54.43,1.14.48,1.75h.02ZM16.17,20.77s.03-.06.05-.08c-.14-.08-.3-.14-.4-.24-.09-.09-.11-.23-.17-.34.12.02.24.03.36.06.24.08.48.19.72.28.02-.04.04-.08.06-.12-.16-.11-.35-.2-.49-.34-.33-.32-.64-.29-1.06-.12-.73.29-1.47.62-2.32.38-.07-.02-.19.03-.25.08-.04.04-.03.16.01.2.38.38.81.69,1.35.77-.08-.18-.16-.36-.27-.59.44.2.77.36,1.09.51.01-.03.03-.06.04-.08-.12-.16-.24-.33-.36-.49.04-.02.08-.05.12-.07.33.11.51.57.94.38-.08-.19-.15-.35-.21-.52.04-.01.08-.03.11-.04.23.12.45.24.68.37ZM20.34,30.99v-2.71c-.73.25-1.12.77-1.1,1.38.02.59.45,1.14,1.1,1.34h0ZM21.61,30.97c.56-.09,1.04-.77,1.05-1.37,0-.59-.41-1.13-.98-1.28-.02.07-.06.14-.06.21v2.44s-.01,0-.01,0ZM26.52,22.24c.56.06,1.03-.13,1.26-.51-.08-.04-.16-.09-.24-.12-.81-.28-1.62-.54-2.42-.83-.35-.13-.65-.19-.99.18.17.08.31.2.47.21.31.02.54.06.34.46.32-.06.57-.11.86-.16-.02.18-.03.32-.05.56.34-.08.62-.16.98-.24-.08.19-.13.3-.2.44h-.01ZM17.1,21.66c-.21-.47.08-.46.39-.49.13-.01.25-.15.37-.23-.11-.08-.21-.22-.33-.23-.21-.01-.43.03-.63.1-.53.19-1.04.43-1.57.61-.34.12-.71.17-1.12.27.35.42.76.56,1.24.53-.02-.15-.03-.29-.05-.46.34.07.58.39.89.13-.02-.13-.05-.24-.08-.43.29.06.53.12.88.19h.01ZM14.03,6.55s-.05-.03-.08-.05c-.16.24-.33.48-.48.73-.1.17-.26.37-.23.53.11.5.3.99.47,1.53.21-.28.48-.5.53-.75.05-.26-.12-.55-.22-.9-.19.23-.32.4-.46.57-.05-.02-.1-.05-.15-.07.13-.24.28-.47.37-.73.1-.28.16-.58.23-.87h.02,0ZM28.47,9.23c.14-.34.31-.69.42-1.06.06-.2.1-.44.02-.62-.17-.37-.42-.71-.64-1.05-.05.02-.09.04-.14.06.2.55.4,1.09.6,1.64-.04.01-.07.03-.11.04-.14-.17-.27-.33-.41-.51-.33.59-.42,1.11.27,1.51h-.01Z"/>
            <path class="cls-1" d="M27.23,33.8c-.26.58-.52,1.16-.8,1.8.61-.25,1.23-.47,1.81-.75.13-.06.17-.32.2-.5.11-.72.35-1.39.94-1.92.17-.15.39-.26.67-.44.08.81-.11,1.48-.39,2.18.55-.36,1.12-.71,1.65-1.09.1-.07.12-.29.11-.44-.04-.75.04-1.48.53-2.12.13-.18.31-.33.52-.55.25.76.22,1.42.15,2.16.41-.41.84-.81,1.23-1.23.06-.06,0-.22-.02-.32-.16-.78-.24-1.57.17-2.31.12-.22.31-.42.51-.69.34.8.41,1.52.36,2.28.27-.34.57-.67.81-1.02.08-.12.06-.33.02-.49-.27-.87-.39-1.72.12-2.55.08-.12.18-.23.31-.4.38.67.52,1.3.48,1.97.04.01.08.03.12.04.25-.49.52-.98.75-1.48.03-.07-.07-.2-.14-.3-.42-.64-.68-1.32-.59-2.07.03-.22.1-.43.19-.75.73.54.88,1.24,1.19,1.92.21-.56.42-1.07.6-1.6.04-.11-.02-.26-.09-.37-.51-.74-.86-1.52-.67-2.41.04-.17.12-.34.2-.58.57.49.83,1.05,1.02,1.64h.1c.14-.69.3-1.38.4-2.08.02-.12-.16-.28-.28-.39-.67-.65-1.08-1.39-1.03-2.3,0-.12.04-.24.06-.42.68.34,1,.88,1.36,1.39.05,0,.09,0,.14-.01,0-.66-.04-1.33,0-1.99.05-.67-.25-1.07-.84-1.47-.69-.46-1.04-1.15-1-2.03.7.21,1.16.63,1.69,1.15-.04-.28-.05-.46-.08-.63-.14-.7-.27-1.41-.44-2.1-.03-.13-.21-.28-.37-.34-.7-.28-1.35-.61-1.73-1.24-.14-.24-.21-.52-.32-.78.04-.03.08-.07.12-.1.3.11.6.2.89.32.28.12.54.28.89.39-.28-.67-.53-1.36-.86-2.01-.12-.24-.45-.4-.67-.6-.53-.47-.76-1.07-.83-1.72-.02-.13.04-.26.07-.45.86.42,1.5.97,1.68,1.77.2.86.45,1.69.83,2.5.03.05.07.1.07.1.26-.46.52-.92.78-1.39.06.01.11.02.17.03.06.21.15.41.18.62.13.83.13,1.65-.49,2.36-.07.08-.1.21-.08.3.15.84.32,1.67.49,2.51,0,.03.04.06.08.12.25-.54.49-1.05,1.21-1.37,0,.39.07.72.03,1.04-.09.73-.26,1.43-.95,1.93-.08.05-.15.16-.15.25v2.68c.21-.22.38-.45.6-.62.22-.17.49-.28.79-.38-.07.99-.26,1.91-1.23,2.5-.25.15-.39.31-.44.59-.1.62-.24,1.22-.38,1.87.51-.34.96-.75,1.64-.73-.03.65-.84,2-1.81,2.21-.26.06-.36.16-.42.38-.07.28-.19.54-.31.86.45-.18.85-.34,1.35-.54-.03.62-.32,1.04-.61,1.46-.33.47-.8.79-1.41.93-.1.02-.23.07-.27.14-.24.4-.47.81-.73,1.27.61-.26,1.15-.46,1.76-.3-.22.68-1.34,1.63-2.08,1.62-.7,0-.9.4-1.19.83.51-.03,1-.2,1.53.06-.64.75-1.32,1.38-2.42,1.38-.31,0-.51.08-.71.29-.26.27-.58.49-.84.77.57,0,1.11-.09,1.61.19-.51.79-1.82,1.3-2.75,1.08-.28-.07-.47-.03-.68.13-.32.25-.67.47-1.05.73.5.16,1.06.14,1.49.58-.27.14-.49.28-.74.38-.74.3-1.5.38-2.24,0-.35-.19-.57.12-.84.19-.4.11-.77.32-1.2.51.54.19,1.11.32,1.54.83-.31.09-.57.2-.85.24-.82.11-1.61.06-2.26-.51-.07-.06-.2-.11-.29-.1-.33.04-.65.12-.99.18,0,.49.32,1-.28,1.43.54.09,1.02.16,1.51.24-.13.32-.82.3-.65.75.11.29.39.54.61.84-.94,0-1.83-.2-2.65-.66-.85-.48-1.38-1.18-1.75-2.1-.82,1.89-2.35,2.69-4.46,2.75.24-.31.55-.56.63-.86.11-.41-.42-.48-.78-.72.59-.09,1.09-.17,1.66-.26-.53-.34-.42-.76-.3-1.16.07-.23,0-.31-.24-.36-.4-.1-.72-.13-1.1.17-.68.55-2.13.49-2.82.06.36-.46.93-.58,1.52-.78-.09-.06-.15-.12-.22-.15-.44-.18-.89-.36-1.34-.52-.16-.05-.38-.07-.52,0-.95.44-2.29.1-2.99-.54.54-.17,1.03-.32,1.56-.49-.43-.29-.86-.6-1.3-.88-.07-.05-.24,0-.35.03-1.03.29-2.38-.35-2.81-1.08.49-.32,1.03-.17,1.67-.16-.41-.39-.75-.74-1.12-1.05-.09-.07-.29-.06-.44-.05-1.07.01-1.72-.6-2.34-1.25-.04-.04-.03-.11-.06-.23h1.52c-.16-.23-.33-.49-.52-.72-.05-.05-.2-.04-.31-.05-1.03-.03-2.12-.75-2.44-1.65.63-.2,1.18.04,1.81.3-.26-.47-.46-.87-.7-1.25-.06-.09-.22-.15-.34-.17-1.15-.21-1.94-1.57-1.95-2.28.55-.07.91.27,1.38.53-.14-.41-.24-.77-.38-1.12-.03-.08-.18-.14-.28-.17-.96-.29-1.81-1.29-1.88-2.28.7,0,1.14.43,1.67.8-.14-.75-.26-1.44-.41-2.14-.02-.1-.16-.19-.27-.25-1.09-.6-1.31-1.57-1.42-2.65.72.13,1.06.59,1.48,1.07v-.67c0-.59.02-1.17.04-1.76,0-.24-.03-.4-.26-.58-.69-.54-.86-1.28-.87-2.07,0-.27.03-.53.06-.86.73.31.96.86,1.24,1.41.07-.37.14-.74.22-1.1.11-.49.25-.98.31-1.47.02-.18-.08-.41-.19-.57-.67-.91-.44-1.85-.17-2.88.67.42.74,1.03.97,1.67.24-.91.74-1.63.82-2.51.09-.98.84-1.61,1.82-2.11.14.54,0,.99-.22,1.42-.13.26-.3.53-.54.7-.68.49-.96,1.17-1.25,1.86-.1.24-.18.49-.29.77.61-.24,1.16-.47,1.72-.69.03.04.06.08.09.12-.08.59-.41,1.07-.93,1.42-.33.22-.72.36-1.08.56-.14.07-.32.17-.35.28-.21.86-.39,1.73-.59,2.65.58-.37,1.08-.69,1.65-1.06.13.59-.04,1.04-.33,1.4-.33.4-.78.73-1.17,1.09-.1.09-.27.2-.27.3-.02.89,0,1.79,0,2.71.45-.45.87-.88,1.29-1.3.05.03.1.05.15.08.15.64.03,1.24-.34,1.81-.19.29-.42.56-.68.8-.21.2-.26.38-.21.64.13.59.23,1.18.35,1.79.34-.53.66-1.04,1.03-1.62.38.5.39.98.28,1.42-.13.53-.43,1.02-.64,1.53-.07.18-.13.41-.08.59.14.46.35.91.56,1.45.22-.72.47-1.34,1.12-1.89.09.29.19.5.21.72.07.73-.11,1.42-.58,2.03-.17.22-.19.43-.05.66.21.35.4.71.62,1.08.18-.63.35-1.23.54-1.93.47.39.64.79.64,1.18,0,.59-.13,1.18-.18,1.78-.02.18,0,.4.09.55.21.34.49.65.77.97-.1-.75-.03-1.47.32-2.22.5.36.66.82.72,1.27.06.5.04,1.03-.06,1.52-.07.35,0,.59.28.83.3.24.56.51.84.77.04,0,.08-.01.12-.02v-1.98c.59.19.78.58.88.94.15.58.16,1.18.26,1.77.02.14.08.32.19.4.5.35,1.02.68,1.51,1-.14-.66-.28-1.31-.44-2.07.63.15.97.44,1.14.81.25.53.39,1.11.6,1.66.06.15.15.34.29.4.54.24,1.11.44,1.67.66-.26-.59-.52-1.17-.77-1.74l.12-.11c.23.07.49.11.7.22.66.36,1.03.94,1.28,1.57.22.55.35.64,1.08.64.17-.61.33-.7,1.06-.55.6.13,1.17.34,1.83.08.28-.11.72.08,1.09.12.17.02.34.02.51,0,.35-.06.7-.18,1.05-.2.61-.05.74.07.77.59.75.08,1.05-.09,1.3-.7.31-.75.78-1.38,1.67-1.67.09-.03.18-.03.27-.05.04.03.08.06.13.09h.02ZM24.19,39.14c.09-.29.18-.57.29-.91-.21.04-.39.07-.56.1-.08-.07-.16-.18-.24-.19-.53-.02-.98-.22-1.41-.46-.3-.17-.61-.32-.91-.48.47.55.92,1.12,1.69,1.38,0,.03-.02.06-.03.09-.14.03-.28.06-.42.08-.01.03-.02.05-.03.08.62.26,1.24.52,1.86.78.03-.03.06-.06.09-.1-.1-.12-.21-.25-.31-.37,0,0-.02,0-.02,0ZM16.73,39.57c1.9-.45,1.9-.44,2.24-.83-.13-.03-.27-.05-.41-.08.07-.1.13-.2.2-.29.03-.04.05-.12.08-.12.61-.06.79-.59,1.18-.88-.14.05-.25.14-.37.2-.11.06-.23.12-.35.16-.19.06-.39.08-.57.15-.22.07-.43.21-.65.25-.4.09-.8.13-1.24.19.49.58.48.67-.11,1.26h0ZM20.74,36.95c.28-.1.59-.15.84-.29.38-.21.37-.48,0-.69-.53-.3-1.09-.28-1.64-.07-.46.17-.49.56-.07.78.25.13.56.18.88.27h-.01ZM19.5,36.72s-.02-.07-.03-.11c-.18,0-.36.04-.54,0-.14-.02-.4-.15-.39-.18.07-.23-.16-.16-.24-.18-.16-.05-.35-.07-.51-.09-.05.23-.12.47-.15.7-.1.69.27.91,1.03.64.04,0,.11.03.14.02.33-.14.65-.29.97-.44-.02-.04-.04-.08-.06-.11-.28.04-.55.09-.83.13-.27.04-.54.09-.81.13,0-.05-.02-.09-.03-.14.48-.12.96-.25,1.44-.37,0,0,.01,0,.01,0ZM22.73,37.51c.13.06.22.12.33.16.32.13.81-.07.77-.32-.05-.31-.2-.61-.2-.91,0-.45-.24-.23-.43-.16-.1.04-.2.07-.34.12-.03.07-.09.2-.15.36.03.05.07.12.11.2.01.02.04.03.06.04.23.09.24.2.05.35-.06.04-.12.09-.2.15h0ZM22.46,37.49c-.05-.21-.05-.38-.1-.39-.26-.07-.54-.11-.81-.15,0,.03-.02.05-.03.08.27.13.54.27.94.47h0ZM21.55,37.95l-.06.05c.29.28.58.55.87.83l.08-.07c-.3-.27-.59-.54-.89-.81Z"/>
            <path class="cls-1" d="M10.96,8.67c-.37.44-.4,1.06-.11,1.39.04-.45.07-.87.11-1.39ZM11.56,9.42c-.32.34-.32.71-.05.95.02-.33.03-.64.05-.95ZM9.89,11.78h.13v-.78h-.13v.78Z"/>
            <path class="cls-1" d="M31.33,10.11c.32-.43.27-1.07-.1-1.33.03.44.06.87.1,1.33ZM30.78,9.52s-.07,0-.11.01v.86h.11v-.87ZM32.3,11.03h-.18v.78h.13c.02-.26.03-.52.05-.79h0Z"/>
            <path class="cls-1" d="M31.43,14.23s.11.05.16.07l.36-.91s-.11-.04-.16-.05c-.12.3-.24.59-.36.89ZM29.96,14.94c.06.02.13.04.19.06.08-.27.17-.55.25-.82-.05-.01-.09-.02-.14-.04-.1.27-.2.53-.3.8ZM32.31,13.78l.21.04c.04-.25.07-.5.11-.75-.05,0-.1-.01-.15-.02-.06.24-.12.49-.18.73,0,0,0,0,.01,0ZM30.86,14.49s.1.02.14.04c.07-.23.15-.46.22-.7-.06-.01-.11-.03-.17-.04-.07.23-.13.47-.2.7h.01Z"/>
            <path class="cls-1" d="M19.77,11.03v-.76c-.74,0-1.45-.02-2.15,0-.41.02-.48-.13-.49-.45-.01-.35.21-.33.48-.33h3.11c-.1-.29-.19-.54-.29-.81h1.42c-.08.28-.15.51-.24.79h3.59c.02.15.03.26.05.37.06.34-.11.43-.47.42-.72-.02-1.44,0-2.18,0v.79h1.88c.64,0,.65,0,.65.54,0,1.64,0,3.28-.01,4.92,0,.36-.2.53-.6.52h-.25v-3.44h-2.31v-1.62h-1.55v1.6c-.69,0-1.32.02-1.96,0-.35-.01-.49.06-.49.41.02.9-.02,1.8,0,2.7,0,.34-.19.34-.47.35-.31.01-.42-.06-.41-.35.03-1.76.04-3.53.04-5.29,0-.32.13-.38.44-.37.72.02,1.45,0,2.21,0h0ZM17.97,12.88c.47,0,.87.01,1.27,0,.18,0,.48-.04.51-.12.07-.22.03-.46.01-.7,0-.04-.1-.09-.16-.09h-1.61c-.01.17-.02.27-.02.37v.55h0ZM22.63,11.98c-.11.61.15.91.78.9.19,0,.39.02.58-.01.1-.02.24-.13.26-.21.04-.22.01-.44.01-.68h-1.64,0ZM21.9,10.26h-1.16c-.24,0-.34.08-.34.31,0,.47.03.51.57.49h.93v-.8Z"/>
            <path class="cls-1" d="M21.11,16.81c-.68,0-1.37-.01-2.05,0-.34,0-.43-.1-.42-.39.02-.59,0-1.17,0-1.76,0-.25.09-.36.39-.36,1.39.01,2.78.02,4.18.01.26,0,.34.08.34.31-.01.62-.01,1.25,0,1.87,0,.25-.1.32-.38.31-.68-.02-1.36,0-2.04,0h-.02ZM22.66,15.11h-2.23c-.9-.02-.92,0-.82.8,0,.01.02.02.06.06h3v-.86s-.01,0-.01,0Z"/>
            <path class="cls-1" d="M19.31,8.34v-.52c1.15,0,2.25,0,3.36.01.08,0,.25.18.23.24-.03.11-.18.26-.28.26-.68.02-1.36.01-2.05.01h-1.27s.01,0,.01,0Z"/>
            <path class="cls-1" d="M15.59,5.8c-.31.37-.61.75-.96,1.17-.05-.39.51-1.09.96-1.17Z"/>
            <path class="cls-1" d="M26.82,5.72c.3.37.61.73.91,1.1-.05.04-.1.07-.15.11-.31-.36-.62-.72-.93-1.08.06-.04.12-.09.17-.13Z"/>
            <path class="cls-1" d="M10.96,8.67c-.04.51-.08.94-.11,1.39-.29-.33-.25-.95.11-1.39Z"/>
            <path class="cls-1" d="M11.56,9.42c-.02.31-.03.62-.05.95-.26-.25-.27-.61.05-.95Z"/>
            <path class="cls-1" d="M9.89,11.78v-.78h.13v.78h-.13Z"/>
            <path class="cls-1" d="M31.33,10.11c-.03-.46-.07-.89-.1-1.33.37.26.42.9.1,1.33Z"/>
            <path class="cls-1" d="M30.78,9.52v.87h-.11v-.86s.07,0,.11-.01Z"/>
            <path class="cls-1" d="M32.3,11.03c-.02.26-.03.52-.05.79h-.13v-.78h.18Z"/>
            <path class="cls-1" d="M31.43,14.23c.12-.3.24-.59.36-.89.05.02.11.04.16.05l-.36.91s-.11-.05-.16-.07Z"/>
            <path class="cls-1" d="M29.96,14.94c.1-.27.2-.53.3-.8.05.01.09.02.14.04-.08.27-.17.55-.25.82-.06-.02-.13-.04-.19-.06Z"/>
            <path class="cls-1" d="M32.31,13.78c.06-.24.12-.49.18-.73.05,0,.1.01.15.02-.04.25-.07.5-.11.75l-.21-.04h-.01Z"/>
            <path class="cls-1" d="M30.86,14.49c.07-.23.13-.47.2-.7.06.01.11.03.17.04-.07.23-.15.46-.22.7-.05-.01-.1-.02-.14-.04h-.01Z"/>
            <path class="cls-1" d="M10.69,14.21c-.45-.18-.4-.54-.48-.87.04-.01.08-.03.12-.04.12.3.24.6.37.91h-.01Z"/>
            <path class="cls-1" d="M11.86,14.09c.09.29.18.57.27.86-.06.01-.13.03-.19.04-.09-.29-.17-.58-.26-.86.06-.01.12-.03.18-.04Z"/>
            <path class="cls-1" d="M9.83,13.8c-.4-.25-.46-.5-.24-.87.08.3.15.55.24.87Z"/>
            <path class="cls-1" d="M29.42,9.94c-.07-.3-.14-.59-.22-.94.42.19.52.56.22.94Z"/>
            <path class="cls-1" d="M12.74,9.92c-.28-.49-.18-.81.27-.91-.1.33-.19.62-.27.91Z"/>
          </g>
          <g>
            <g class="cls-3">
              <g class="cls-3">
                <path class="cls-2" d="M57.75,10.27l-.67.87c-1.05-.57-1.75-1.56-2.13-2.8-.36,1.4-1.07,2.52-2.15,3.17l-.7-.86c1.56-.88,2.29-2.71,2.29-4.83v-.69h-2v-.92h4.95v.92h-1.86v.69c0,1.92.73,3.65,2.27,4.45ZM61.45,13.66h-1.08v-5.47h-1.27v4.95h-1.07V3.2h1.07v4.04h1.27V3h1.08v10.66Z"/>
                <path class="cls-2" d="M68.01,4.82h-3.64v3.11c2.08,0,3.25-.06,4.58-.33l.13.92c-1.44.29-2.7.36-4.99.36h-.85V3.9h4.76v.92h0ZM71.6,13.44h-7.21v-3.52h1.13v2.61h6.08v.92h0ZM71.15,6.08h1.56v.94h-1.56v3.69h-1.13V2.99h1.13v3.09Z"/>
                <path class="cls-2" d="M74.96,5.1h2.67v-1.56h1.12v2.01h2.33v-2.56h1.13v5.82h-1.13v-2.32h-2.33v1.96h-4.92V3.55h1.13v1.56h0ZM77.63,7.54v-1.56h-2.67v1.56h2.67ZM76.38,10.51h4.7v-1.2h1.12v4.19h-6.94v-4.19h1.12v1.2ZM81.08,12.58v-1.19h-4.7v1.19h4.7Z"/>
                <path class="cls-2" d="M89.74,6.37c0,1.57-1.23,2.65-2.83,2.65s-2.84-1.08-2.84-2.65,1.24-2.64,2.84-2.64,2.83,1.1,2.83,2.64ZM85.17,6.37c0,1,.74,1.67,1.74,1.67s1.73-.67,1.73-1.67-.75-1.65-1.73-1.65-1.74.68-1.74,1.65ZM93.01,13.44h-7.3v-3.46h1.14v2.55h6.15v.92h.01ZM92.69,10.76h-1.13V3.01h1.13v7.75Z"/>
              </g>
            </g>
            <g class="cls-3">
              <g class="cls-3">
                <path class="cls-1" d="M60.06,21.91h3.88v-3.63h2.45v17.7h-2.45v-6.62h-3.69c-.8,1.75-2.19,2.76-3.9,2.76-2.68,0-4.6-2.43-4.58-6.31-.02-3.84,1.9-6.29,4.58-6.29,1.58,0,2.9.87,3.71,2.39ZM54.14,25.81c-.02,2.64.89,4.06,2.21,4.06s2.21-1.42,2.21-4.06-.87-4.06-2.21-4.06-2.23,1.44-2.21,4.06ZM60.93,25.81c0,.55-.05,1.08-.12,1.57h3.12v-3.47h-3.18c.11.58.17,1.22.17,1.9h.01Z"/>
                <path class="cls-1" d="M78.35,26.13l-1.32,1.92c-1.87-.62-3.18-1.82-3.94-3.38-.77,1.79-2.14,3.18-4.15,3.86l-1.34-1.94c2.95-.99,4.21-3.34,4.23-5.76v-1.61h2.48v1.84c0,2.14,1.24,4.19,4.04,5.07ZM82.06,32.53c0,2.17-2.31,3.42-5.96,3.42s-6.06-1.24-6.06-3.42,2.33-3.42,6.06-3.42,5.96,1.26,5.96,3.42ZM72.53,32.53c-.02,1.01,1.24,1.48,3.57,1.48s3.51-.47,3.51-1.48-1.22-1.47-3.51-1.47-3.59.5-3.57,1.47ZM81.89,22.42h2.39v2.06h-2.39v4.29h-2.48v-10.48h2.48v4.13Z"/>
                <path class="cls-1" d="M94.12,21.87h-9.82v-1.96h3.8v-1.79h2.46v1.79h3.55v1.96h0ZM93.5,25.77c-.02,1.98-1.77,3.3-4.19,3.28-2.45.02-4.15-1.3-4.13-3.28-.02-1.96,1.69-3.3,4.13-3.32,2.43.02,4.17,1.36,4.19,3.32ZM99.25,32.85c0,1.92-2.35,3.09-6.09,3.09s-6.09-1.16-6.09-3.09,2.33-3.11,6.09-3.11,6.09,1.15,6.09,3.11ZM87.49,25.77c-.02.95.7,1.46,1.82,1.46s1.88-.5,1.88-1.46-.78-1.47-1.88-1.47-1.84.52-1.82,1.47ZM89.66,32.85c0,.8,1.24,1.22,3.49,1.22s3.43-.43,3.43-1.22-1.22-1.22-3.43-1.24c-2.25.02-3.49.41-3.49,1.24ZM99.15,29.53h-2.46v-1.86h-2.41v-1.98h2.41v-1.55h-2.37v-1.98h2.37v-3.88h2.46v11.26h0Z"/>
                <path class="cls-1" d="M111.3,25.13l-1.3,1.9c-1.89-.61-3.21-1.8-3.98-3.32-.77,1.7-2.16,3.04-4.23,3.69l-1.28-1.96c2.93-.85,4.23-3.01,4.25-5.3v-1.28h2.5v1.28c-.02,2.12,1.22,4.15,4.04,4.99ZM115.53,32.72h-9.28v1.09h9.78v1.94h-12.23v-4.83h9.28v-1.01h-9.3v-1.9h11.74v4.72h.01ZM115.53,27.27h-2.46v-4.39h-3.32v-1.96h3.32v-2.64h2.46s0,8.99,0,8.99Z"/>
                <path class="cls-1" d="M127.06,21.45h-3.51c.02,2.06,1.25,4.05,4.08,4.87l-1.18,1.94c-1.95-.59-3.3-1.78-4.08-3.3-.79,1.79-2.22,3.2-4.35,3.9l-1.26-1.96c2.93-.92,4.25-3.21,4.29-5.45h-3.61v-1.98h9.63v1.98h0ZM131.21,32.51c0,2.15-2.29,3.43-5.96,3.43s-6.06-1.28-6.06-3.43,2.31-3.42,6.06-3.4c3.67-.02,5.96,1.24,5.96,3.4ZM121.68,32.51c-.02,1.01,1.24,1.51,3.57,1.51s3.51-.5,3.51-1.51-1.22-1.48-3.51-1.48-3.59.49-3.57,1.48ZM131.04,22.38h2.39v2.02h-2.39v4.37h-2.48v-10.48h2.48v4.1h0Z"/>
                <path class="cls-1" d="M143.9,21.82h-10.48v-1.96h4.02v-1.67h2.47v1.67h4v1.96h-.01ZM143.01,25.64c0,1.94-1.79,3.26-4.35,3.26s-4.39-1.32-4.39-3.26,1.82-3.26,4.39-3.26,4.35,1.32,4.35,3.26ZM147.43,35.95h-2.48v-3.86h-9.41v-1.98h11.9v5.84h0ZM136.7,25.64c-.02.89.78,1.36,1.96,1.36s2-.47,2-1.36-.82-1.4-2-1.4-1.98.49-1.96,1.4ZM147.43,22.86h2.39v2.02h-2.39v4.48h-2.48v-11.08h2.48v4.58Z"/>
                <path class="cls-1" d="M154.38,30.9v-1.49c-1.94-.34-3.2-1.54-3.18-3.2-.02-1.98,1.79-3.32,4.39-3.32s4.44,1.34,4.44,3.32c0,1.65-1.26,2.85-3.2,3.2v1.42c1.47-.07,2.97-.18,4.39-.37l.17,1.82c-3.86.66-8.04.7-11.18.7l-.33-2.02c1.35,0,2.89,0,4.5-.06h0ZM160.96,22.19h-10.73v-1.94h4.15v-1.88h2.46v1.88h4.12v1.94ZM153.55,26.21c-.02.93.83,1.44,2.04,1.44s2.08-.5,2.08-1.44-.83-1.44-2.08-1.44-2.06.52-2.04,1.44ZM164.65,35.95h-2.46v-17.66h2.46v17.66Z"/>
              </g>
            </g>
          </g>
        </g>
        <g class="cls-3">
          <g class="cls-3">
            <path class="cls-4" d="M99.32,8.04c-.62,0-1.06.33-1.06.75,0,.33.27.56.85.7l.74.18c.89.21,1.33.65,1.33,1.35,0,.86-.71,1.5-1.96,1.5-1.12,0-1.79-.5-1.92-1.41h.83c.09.49.45.72,1.08.72.71,0,1.16-.29,1.16-.76,0-.35-.25-.59-.82-.72l-.75-.17c-.87-.2-1.33-.68-1.33-1.34,0-.85.74-1.47,1.85-1.47,1.03,0,1.68.55,1.78,1.36h-.77c-.11-.41-.42-.69-1.01-.69Z"/>
            <path class="cls-4" d="M101.88,6.08c0-.29.25-.52.55-.52s.56.23.56.52-.26.52-.56.52-.55-.23-.55-.52ZM102.04,7.43h.79v4.99h-.79v-4.99Z"/>
            <path class="cls-4" d="M104.69,12.42h-.79v-4.99h.76v.78h.06c.24-.5.7-.84,1.46-.84,1.01,0,1.68.62,1.68,1.88v3.17h-.79v-3.11c0-.77-.42-1.23-1.13-1.23s-1.26.49-1.26,1.35v2.99h.01Z"/>
            <path class="cls-4" d="M108.72,9.95c0-1.52.9-2.58,2.26-2.58,1.07,0,1.86.62,1.98,1.57h-.79c-.11-.46-.51-.87-1.18-.87-.89,0-1.49.74-1.49,1.86s.58,1.89,1.49,1.89c.59,0,1.04-.31,1.18-.86h.79c-.13.89-.85,1.57-1.97,1.57-1.42,0-2.28-1.07-2.28-2.57h0Z"/>
            <path class="cls-4" d="M113.52,9.97c0-1.53.9-2.6,2.26-2.6,1.05,0,2.15.64,2.15,2.49v.33h-3.62c.04,1.06.65,1.64,1.54,1.64.6,0,.97-.26,1.16-.57h.84c-.24.75-.97,1.27-2,1.27-1.44,0-2.33-1.02-2.33-2.55h0ZM117.13,9.52c0-.84-.53-1.45-1.35-1.45s-1.41.68-1.46,1.45h2.81Z"/>
            <path class="cls-4" d="M121.12,12.42h-.84v-5.79h-.04l-1.62,1.08v-.84l1.65-1.1h.84v6.65h.01Z"/>
            <path class="cls-4" d="M127.34,8.83c0,2.36-.96,3.68-2.53,3.68-1.17,0-1.99-.72-2.16-1.77h.82c.15.6.6,1.04,1.34,1.04,1.08,0,1.75-.94,1.75-2.55h-.09c-.39.55-.99.88-1.7.88-1.19,0-2.18-.91-2.18-2.2s.91-2.24,2.32-2.23c1.15,0,2.42.7,2.42,3.15h.01ZM123.41,7.9c0,.83.62,1.48,1.49,1.48s1.54-.72,1.54-1.5-.63-1.48-1.52-1.48-1.53.68-1.52,1.5h0Z"/>
            <path class="cls-4" d="M128.16,10.66c0-.86.59-1.57,1.35-1.69v-.04c-.66-.16-1.09-.76-1.09-1.49,0-1.02.89-1.76,2.1-1.76s2.1.74,2.11,1.76c0,.73-.45,1.33-1.1,1.49v.04c.75.12,1.35.83,1.36,1.69,0,1.08-.98,1.86-2.37,1.86s-2.37-.77-2.36-1.86h0ZM132.06,10.61c0-.74-.65-1.28-1.54-1.28s-1.55.54-1.53,1.28c-.02.7.58,1.18,1.53,1.18s1.54-.48,1.54-1.18ZM131.82,7.51c0-.66-.52-1.11-1.3-1.11s-1.3.45-1.3,1.11.54,1.13,1.3,1.13,1.3-.46,1.3-1.13Z"/>
            <path class="cls-4" d="M137.08,6.55v-.05h-3.52v-.73h4.37v.77l-3.04,5.88h-.86l3.05-5.87Z"/>
          </g>
        </g>
      </g>
    </g>
  </g>
</svg>