<?xml version="1.0" encoding="UTF-8"?>
<svg id="Layer_2" xmlns="http://www.w3.org/2000/svg" viewBox="0 0 77.43 73.87">
  <defs>
    <style>
      .cls-1 {
        fill: #006a3d;
      }

      .cls-2 {
        fill: #332c2b;
      }
    </style>
  </defs>
  <g id="_레이어_1" data-name="레이어_1">
    <g>
      <path class="cls-1" d="M36.55,50.48c-4.9-1.6-6.89-5.95-4.6-9.99-.72.38-1.3.7-1.89.99-1.74.86-2.83.62-4.01-.79-.23-.28-.58-.5-.92-.68-.94-.51-1.75-1.09-2.21-2.06-.23-.49-.83-.85-1.3-1.23-.71-.56-1.27-1.2-1.55-2.03-.11-.33-.49-.58-.71-.88-.55-.75-1.41-1.46-1.53-2.27-.18-1.2-.65-2.28-1-3.42-.23-.74-.4-1.48.03-2.24.1-.18,0-.5-.09-.73-.46-1.26-.75-2.51-.13-3.8.08-.17,0-.41-.02-.61-.13-1.31-.43-2.63.18-3.91.15-.31.34-.68.64-.85.58-.33.6-.81.68-1.31.18-1.17.52-2.26,1.82-2.89.18-.08.23-.38.34-.58.44-.83.64-1.96,1.37-2.4,1-.62,1.55-1.42,2.18-2.24.07-.1.13-.22.24-.27,1.61-.72,2.54-2.16,4-3.02.54-.31,1.13-.56,1.72-.8.26-.1.57-.09,1.07-.16-.27.51-.45.85-.62,1.19-.77,1.54-1.23,3.28-.81,4.82.51,1.84,1.2,3.87,3.57,4.7.33.11.69.16,1.12.25.04-.25.12-.46.08-.64-.16-.74.24-.88.95-.84.8.05,1.6.03,2.41.02.22,0,.43-.09.64-.14-.06-.19-.07-.4-.19-.56-.92-1.2-1.72-2.44-1.93-3.91-.25-1.77.12-3.4,1.56-4.69.79-.71,1.63-1.35,1.45-2.52.67.97.52,1.93.03,2.88-.34.65-.8,1.25-1.08,1.92-.66,1.57-.45,3.08.56,4.6.77-.78.76-1.65.69-2.52-.14-1.7.1-3.29,1.51-4.58.13-.12.29-.2.43-.31l.16.11c-.11.22-.19.45-.32.66-.64.99-.8,2.04-.6,3.16.27,1.5.04,2.87-1.32,3.95-.16.13-.13.44-.2.66.24.03.49.13.71.09,1.08-.21,2.21-1.61,2.23-2.76,0-.46-.04-.93-.11-1.39-.17-1.11.12-2.05.89-2.64,0,.17.03.3,0,.41-.28.83-.18,1.59.1,2.44.58,1.71-.02,3.2-1.49,4.4-.15.12-.29.26-.43.4-.04.04-.03.13-.07.36.72,0,1.4.05,2.08-.01.77-.07,1.04.18.95.84-.02.19.03.4.06.65,2.09-.19,3.36-1.22,4.2-2.77.33-.61.79-1.2.93-1.84.16-.74.14-1.55-.02-2.29-.26-1.15-.72-2.26-1.07-3.39-.06-.18-.03-.39-.04-.58.27,0,.57-.05.81.03,1.42.51,2.61,1.3,3.54,2.4.23.27.52.53.84.68,1.03.49,1.75,1.2,2.22,2.15.11.22.27.53.48.6,1.44.47,1.91,1.56,2.21,2.74.12.45.32.75.75,1.04,1,.67,1.34,1.69,1.4,2.76.03.53.28.87.67,1.26.39.39.7.93.8,1.45.15.72.15,1.48.07,2.22-.08.83-.19,1.62.06,2.46.32,1.04-.05,2.06-.43,3.07-.11.29.03.65,0,.97-.07.84-.15,1.68-.27,2.51-.04.24-.21.47-.32.71-.25.52-.4,1.03-.41,1.64-.03,1.22-.99,2.09-1.86,2.96-.27.27-.48.62-.62.97-.36.93-1.2,1.48-1.97,2.09-.26.21-.58.43-.71.7-.44.95-1.19,1.6-2.16,2.11-.46.25-.9.59-1.23.97-.92,1.05-2.15,1.35-3.5.74-.57-.25-1.11-.55-1.86-.92,1.05,2.11,1.06,4.09.03,6-1.02,1.89-2.76,3.09-5.08,3.75.38.27.67.48.96.68,2.65,1.9,2.79,5.31.29,7.37-.15.13-.31.25-.46.37-.28.23-.33.43,0,.68.33.25.64.55.91.85.53.58.56,1.3.11,1.71-.5.46-1.29.46-1.98,0-.43-.29-.87-.57-1.44-.96-.08,1.03-.15,1.91-.21,2.81-.1.04-.19.09-.29.1-1.22.13-1.33.05-1.35-1.05-.01-.49,0-.98,0-1.46,0-.04-.05-.08-.14-.2-.42.25-.81.57-1.27.72-.5.17-1.1.33-1.58.22-.75-.17-.97-.86-.56-1.46.3-.43.69-.82,1.1-1.17.41-.36.45-.59-.02-.94-1.93-1.42-2.47-3.24-1.77-5.37.39-1.2,1.38-1.97,2.47-2.67.12-.08.24-.15.45-.29ZM41.02,35.6c3.89-.88,6.62-2.83,8.1-5.99,2.42-5.16,1.3-9.73-3.39-13.75h3.28v-2.61c.78.78,1.45,1.44,2.15,2.14.33-.63.43-1.13-.23-1.53-.64-.39-1.26-.79-1.88-1.2-.19-.13-.34-.31-.51-.47,1.49-.08,2.03,1.36,3.59,1.43-.13-.61-.11-1.48-.36-1.55-.64-.17-.63-.57-.82-.94-.35-.68-.69-1.41-1.71-1.53-.22.48-.42.93-.63,1.38-.99,2.07-3.39,3.18-5.83,3.02-2.41-.16-4.85-.1-7.27-.03-1.09.03-2.11-.07-3.09-.48-1.61-.67-2.52-1.87-2.99-3.37-.21-.66-.47-.77-.99-.29-.45.41-.73.98-1.09,1.47-.15.2-.29.56-.45.56-.69.03-.6.5-.63.85-.03.27.12.55.19.82.37-.13.74-.25,1.1-.39.08-.03.12-.16.2-.2.5-.28.99-.57,1.51-.82.11-.05.31.03.46.05-.09.12-.15.27-.27.34-.72.48-1.44.97-2.18,1.42-.61.37-.46.79-.21,1.24.86-.79,1.71-1.56,2.55-2.34.07.04.14.08.21.12v2.93h2.31c.06.08.11.16.17.24-.28.19-.6.35-.82.59-.73.78-1.57,1.51-2.09,2.39-1.82,3.1-2.22,6.32-.86,9.68,1.3,3.23,3.72,5.4,7.3,6.54.46.15.96.18,1.45.27,0-.61,0-1.07,0-1.54,0-.42.12-.64.67-.61.85.05,1.71.04,2.56,0,.5-.02.64.16.6.58-.04.47-.05.95-.08,1.57ZM37.39,36.38c-5.21-1.03-8.47-3.8-9.84-8.16-1.35-4.28-.33-8.23,3.12-11.74h-1.72c.04-.7.07-1.32.12-2.14-2.82,2.51-4.4,5.38-4.7,8.67-.67,7.34,2.66,12.68,10.41,15.67-3.02,2.27-4,4.95-2.21,8.14,1.01,1.81,2.81,2.72,4.96,3.17.25-1.27.16-1.44-.95-1.98-1.73-.84-2.7-2.15-2.79-3.91-.1-2.06,1.11-3.44,3.05-4.41.23-.11.52-.36.53-.55.06-.92.02-1.85.02-2.77ZM47.53,16.54c.55.63,1.04,1.1,1.4,1.64,2.01,2.98,2.67,6.17,1.67,9.56-1.28,4.32-4.16,7.27-9.13,8.4-.21.05-.46.34-.49.54-.1.62-.05,1.25-.15,1.87-.12.7.13,1.11.87,1.4,1.22.49,1.98,1.41,2.36,2.53.85,2.51-.45,4.82-3.19,5.79-.21.07-.47.26-.5.43-.09.42-.07.85-.09,1.36,2.57-.45,4.48-1.57,5.49-3.61,1.56-3.13.47-5.71-2.57-7.89,5.54-1.79,8.74-5.32,10.14-10.19,1.5-5.23-.62-10.84-3.54-13.21,0,.24-.04.45,0,.65.14.55-.06.78-.71.73-.45-.03-.91,0-1.56,0ZM21.45,24.22v-1.54c.56.74.29,1.71.93,2.37.08-.02.16-.04.24-.06v-1.1c.75.39-.18,1.41.84,1.59.43-1.4-.73-2.14-1.5-3.05-.21-.25-.31-.59-.48-.87-.15-.26-.26-.59-.5-.75-1.36-.91-2.13-2.15-2.57-3.57-.05-.16.05-.36.09-.55.1-.48.19-.96.32-1.44.05-.19.2-.35.3-.53.14.7.24,1.38.04,1.97-.33.96.26,1.61.71,2.31.29.44.66.9,1.43.67.22-.07.53.09.8.15-.5,1.29.29,2.79,1.56,2.89.08-.37.2-.75.25-1.14.08-.64-.9-1.92-1.53-2.15-.16-.06-.35-.39-.3-.52.24-.57.02-1-.29-1.49-.55-.88-1.02-1.81-1.41-2.75-.29-.7-.42-1.45-.63-2.21-1.6,1.01-1.01,2.6-1.27,3.93-.81-.07-.82-.05-1.12.54-.59,1.17-.51,2.37-.21,3.74.24-.8-.21-1.58.52-2.13.11.83.19,1.65.09,2.46-.11.86.4,1.63,1.55,1.92-.05-.4-.1-.76-.15-1.11-.1-.63-.07-.69.55-.86.09,1.27-.36,2.78,1.72,3.29ZM58.4,12.44c-.14,1.92-.93,3.52-2.03,5-.37.5-.6.94-.32,1.53.06.13-.06.47-.11.47-1.02.07-1.06.92-1.48,1.45-.55.7-.13,1.38.09,2.06.16-.47.31-.94.47-1.4l.24.06c-.08.35-.16.71-.24,1.06.73-.83,1.63-1.61.96-2.9.58,0,1.1.09,1.56-.02.66-.15,1.64-2,1.55-2.63-.11-.76-.16-1.53-.23-2.3.1-.02.21-.03.31-.05.06.24.14.48.18.73.05.29-.04.64.11.87.48.7.27,1.39-.1,1.99-.49.78-1.09,1.52-1.76,2.18-.47.46-1.2.72-1.02,1.52.01.05-.06.12-.11.18-.46.51-.85,1.1-1.41,1.49-.75.53-.61,1.12-.49,1.81,1-.22.14-1.2.91-1.56v1.17c.07.02.14.03.22.05.69-.66.29-1.68.95-2.4v1.5c2.18-.45,1.57-2.09,1.83-3.47.97.74-.02,1.58.52,2.32.49-.59,1.42-.77,1.42-1.65,0-.83-.08-1.66-.1-2.49,0-.13.08-.27.12-.41.07,0,.14-.01.21-.02.13.39.26.79.42,1.26.43-.97.08-1.8-.17-2.64-.17-.57-.45-.94-1.25-.74-.11-1.41.41-2.94-1.25-4.01ZM60.59,26.17c-.06,0-.12,0-.18,0,.19-.57.4-1.12.55-1.7.16-.62.28-1.25.37-1.88.02-.13-.12-.39-.21-.4-.17,0-.38.08-.52.19-.59.45-1.13.96-1.76,1.36-1.22.77-2.5,1.47-3.73,2.22-.29.17-.65.41-.73.67-.2.71-.26,1.45-.41,2.35,2.1-.99,4.43-1.29,5.91-3.01.61.3.33.58-.02.85-1.45,1.11-3.08,1.92-4.89,2.44-1.3.37-1.98,1.14-2.01,2.44.25,0,.6.1.74-.02.91-.71,1.77-1.47,2.69-2.25.52,1.06-.81,1.39-1.3,2.26.69-.18,1.16-.28,1.61-.43.15-.05.3-.21.37-.35.39-.74.75-1.5,1.13-2.25.28.94-.06,1.68-.79,2.34,1.23-.51,1.48-1.7,2.25-2.59.51.84-.56,1.29-.52,2.19.4-.34.76-.5.87-.76.39-.9.74-1.83.99-2.77.07-.26-.26-.6-.41-.91ZM24.01,28.89c-.14-.91-.25-1.69-.4-2.46-.03-.14-.2-.27-.34-.36-.59-.38-1.15-.81-1.79-1.08-1.56-.68-2.84-1.68-4.06-2.74-.43-.38-.66-.13-.66.2,0,.59.07,1.19.23,1.76.2.69.53,1.35.84,2.13-.88-.29-.91.19-.8.62.23.9.48,1.81.85,2.67.14.33.63.53.97.79q-.7-1.59-.45-2.13c.34.55.61,1.06.96,1.53.81,1.07.82,1.06,1.34,1.05-.81-.59-1.18-1.3-.99-2.38.47.8.88,1.4,1.17,2.04.34.75.92,1.08,1.88.88-.41-.67-1.73-.98-1.06-2.14.51.55.99,1.05,1.45,1.57.49.56,1.03,1,1.96.77-.21-.48-.44-.9-.56-1.34-.14-.52-.49-.76-1.02-.92-.78-.23-1.57-.48-2.28-.83-1.01-.51-1.94-1.17-2.95-1.68-.64-.32-.43-.59-.33-.7.42.26.82.56,1.26.77.83.4,1.68.76,2.54,1.12.7.29,1.4.56,2.23.89ZM40.35,47.71c2.13-.51,3.42-2.26,3.26-4.23-.12-1.41-1.65-3.17-2.82-3.11-.14,2.41-.28,4.83-.43,7.34ZM57.63,12.1c.16-1.45-.79-3.02-1.84-3.25,0,.21-.04.42,0,.62.31,1.28-.12,2.45-.7,3.57-.66,1.28-.7,1.25.29,2.36.26.29.46.63.09,1-.35-.4-.63-.73-.93-1.07-.97,1.05-.74,2.17-.47,3.3-.08,0-.16,0-.24,0-.16-.23-.32-.46-.5-.71-.4.65-.21,1.02.5,1.23-.03.37-.07.72-.1,1.08.08.01.16.03.24.04.23-.36.47-.7.67-1.07.37-.68.86-1.34,1.03-2.06.12-.5.26-.75.84-.82-.17-1.05-.32-2.06-.48-3.07.11-.02.23-.03.34-.05.06.4.15.81.18,1.21.03.42.01.42.4.34v-3.48c.07,0,.13-.02.2-.03.13.23.25.46.47.85ZM37.49,47.61c0-1.25.02-2.45,0-3.65-.02-1.21-.08-2.42-.13-3.65-1.7.36-2.93,2.25-2.91,3.59.03,1.76,1.34,3.34,3.04,3.71ZM21.87,13.14c.1.02.21.04.31.06-.07.63-.06,1.29-.24,1.89-.18.58-.54,1.1.43,1.36.04,0,.06.07.08.11.2.56.34,1.14.6,1.68.31.64.71,1.25,1.07,1.88.09-.03.19-.06.28-.09-.04-.23-.11-.46-.12-.69-.04-.47-.21-1-.04-1.41.41-.97-.04-1.74-.44-2.73-.42.44-.75.8-1.13,1.21-.33-.85.3-1.24.79-1.63.47-.37.51-.7.17-1.14-1.02-1.31-1.44-2.75-1.09-4.34.03-.16-.02-.34-.04-.53-1.2.46-2.03,1.99-1.74,3.11.14-.25.28-.5.42-.75.04.02.07.03.11.05v3.69c.13-.17.3-.29.34-.45.11-.42.16-.85.24-1.28ZM40.17,51.73c.09.06.12.1.17.12,1.45.65,2.39,1.63,2.38,3.15-.01,1.53-.88,2.56-2.43,3.17-.19.08-.39.3-.43.49-.37,1.61-.26,1.83,1.27,2.7.17.1.3.3.48.33.33.06.67.04,1.01.05-.04-.27,0-.58-.14-.8-.2-.31-.51-.58-.81-.83-.75-.64-.69-1.04.08-1.71.57-.49,1.14-1.04,1.48-1.66,1.13-2.13-.03-5.17-2.97-5.71-.03.25-.06.49-.09.71ZM37.51,50.97c-.16.03-.32.03-.45.08-1.64.68-2.69,1.8-2.95,3.42-.26,1.57.35,2.87,1.72,3.87.87.64.9,1.08.08,1.82-.27.24-.54.51-.73.8-.13.19-.12.45-.17.68.34.03.76.2,1,.08,1.18-.62,2.35-1.25,1.86-2.82-.12-.39-.22-.65-.64-.83-1.46-.63-2.27-1.67-2.2-3.15.06-1.34.79-2.34,2.14-2.92.57-.25.59-.55.37-1.03ZM54.33,34.25c1.56.07,2.45-.82,3.39-1.81.28.94-.5,1.28-.91,1.82,1.62-.3,3.26-2.2,2.96-3.41-.27.09-.53.18-.79.28-.86.33-1.69.75-2.58.98-.83.21-1.72.25-2.59.29-1.49.07-1.85.28-2.23,1.48,1.73.83,2.75-.62,4.05-1.19.07.1.14.21.21.31-.48.39-.95.78-1.52,1.25ZM22.29,32.57c1.36.65,2.4,2.06,4.17,1.24-.36-1.09-.83-1.47-2.02-1.45-2.04.03-3.93-.35-5.62-1.4-.17-.11-.42-.11-.65-.16-.16,1.34,1.51,3.16,3,3.35-.95-.77-1.13-1.16-.8-1.73,1.65,1.53,2.27,1.87,3.32,1.74-.5-.47-1.41-.6-1.4-1.59ZM51.67,34.76c.14.93-.68,1.29-1.05,1.85.06.06.12.11.17.17.55-.42,1.1-.85,1.65-1.27.08.06.16.13.24.19-.33.39-.65.78-.98,1.17.04.05.07.09.11.14.51-.11,1.03-.22,1.57-.34.04.12.09.26.22.61.48-.5.85-.88,1.22-1.26.04.03.09.06.13.09-.11.32-.22.65-.33,1,1.17-.14,2.6-1.35,2.67-2.28-1.82.49-3.58.1-5.35-.19-.98-.16-1.99.52-2.41,1.57,1.24.2,1.3-1.01,2.14-1.45ZM26.05,11.2s.06,0,.09,0c.62-.66,1.15-1.42,1.89-1.95.68-.48.91-.99.91-1.7,0-1.2-.1-2.42.55-3.54.2-.34.34-.7.53-1.08-1.27.13-3.63,1.94-3.87,2.92.85-.53,1.28-1.66,2.52-1.6.05.07.1.13.15.2-.8.6-1.6,1.19-2.56,1.91.44-.04.66-.07.72-.07.38.32.65.56.94.8-.86,1.02-2.24,1.79-2.2,3.47,1.25-1.86,1.38-1.99,2.13-2.09-.15.37-.37.69-.6,1.02-.4.57-.8,1.13-1.2,1.7ZM52.23,5.98c-.17-1.01-2.43-2.81-3.9-3.04,1.17,1.63,1.15,3.39,1.16,5.15,0,.28.11.68.33.81.91.58,1.66,1.25,2.11,2.37.23-1.31-1.5-1.68-1.2-2.84.8.59,1.41,1.31,1.83,2.17.24-1.62-1.24-2.42-2.15-3.61.34-.03.56-.04.83-.06-.47-.68.2-.55.69-.67-.82-.62-1.57-1.2-2.32-1.77.06-.07.11-.14.17-.21,1.24-.03,1.67,1.04,2.46,1.7ZM28.38,36.37c.07-.09.14-.18.22-.28-.45-.47-.88-.95-1.35-1.39-.13-.12-.41-.18-.6-.15-1.95.25-3.89.75-5.89.25-.02,0-.07.06-.1.09.36,1.07,1.68,2.1,2.63,2.07-.08-.31-.16-.63-.29-1.13.55.53.94.9,1.32,1.27.1-.07.19-.14.29-.2-.13-.18-.28-.34-.38-.53-.1-.19-.16-.4-.24-.6.08-.03.16-.06.24-.09.24.33.4.76.73.96.34.21.85.2,1.46.33-.36-.67-1.2-.79-.91-1.6.6.5,1.13.94,1.66,1.39.06-.05.12-.1.18-.15-.2-.64-1.25-.97-.92-2.01.37.48.59.85.91,1.14.29.26.7.42,1.05.62ZM48.99,37.26c.22.86-.91.76-1.11,1.41.57-.28,1.05-.51,1.53-.75.06.06.12.11.18.17-.19.29-.38.59-.59.91.88.29,1.25-.4,1.84-.8.45.69-.48.79-.65,1.31.46-.12.82-.18,1.12-.32.32-.15.6-.38.89-.58.07.05.15.1.22.15-.2.29-.4.59-.58.84,1.2-.01,2.64-1.01,2.58-1.89-.76,0-1.55.12-2.27-.03-1.05-.22-2.04-.63-3.06-.95-.2-.06-.5-.13-.64-.05-.57.33-1.1.73-1.64,1.1.04.08.09.15.13.23.65-.24,1.31-.48,2.04-.75ZM23.08,10.42c.23-.76.52-1.75.82-2.75.09.01.18.03.27.04.03.13.09.26.07.37-.21,1.11-.4,2.23-.69,3.33-.18.69.03,1.4.75,1.9.27-.39.58-.76.8-1.16.11-.21.11-.48.11-.72,0-1.27-.07-2.53-.04-3.8.01-.53.19-1.05.32-1.67-2.2,1.11-2.5,2.82-2.4,4.45ZM55.19,11.03c.12-1.96.08-3.87-2.22-4.99-.02.08-.06.13-.05.16.46,1.86.58,3.71.09,5.58-.03.1,0,.24.06.33.29.43.59.86.89,1.29.53-.3.94-1.24.83-1.72-.26-1.25-.47-2.5-.7-3.75,0-.02.07-.06.19-.15.72,1.01.81,2.12.89,3.24ZM29.97,38.59c.03-.05.06-.1.09-.16-.25-.15-.55-.26-.74-.45-.16-.16-.21-.42-.31-.63.22.04.45.05.66.12.45.16.9.34,1.34.52.03-.07.07-.14.1-.22-.3-.21-.65-.38-.9-.63-.61-.6-1.19-.53-1.98-.22-1.35.54-2.73,1.15-4.31.71-.13-.04-.36.05-.46.15-.07.07-.05.3.03.38.71.7,1.5,1.28,2.5,1.44-.15-.34-.3-.66-.5-1.09.82.38,1.43.66,2.03.94.03-.05.06-.11.08-.16-.22-.3-.44-.61-.67-.91.07-.05.14-.09.21-.14.61.2.94,1.06,1.74.71-.14-.35-.27-.66-.4-.96.07-.03.14-.06.21-.08.42.23.84.45,1.26.68ZM37.71,57.57c0-.88,0-1.71,0-2.53s0-1.64,0-2.51c-1.35.47-2.07,1.43-2.04,2.56.03,1.1.85,2.11,2.04,2.48ZM40.08,57.54c1.04-.16,1.93-1.43,1.94-2.54.01-1.1-.76-2.11-1.82-2.38-.04.13-.11.27-.11.4,0,1.5,0,3,0,4.53ZM49.19,41.32c1.04.11,1.91-.24,2.33-.94-.15-.07-.29-.16-.45-.22-1.5-.51-3.01-1-4.5-1.54-.65-.24-1.21-.35-1.84.33.31.15.59.38.87.4.58.04,1,.11.62.86.6-.11,1.05-.2,1.6-.3-.03.34-.06.6-.1,1.04.63-.16,1.16-.29,1.82-.45-.16.36-.25.56-.36.82ZM31.7,40.23c-.39-.87.16-.85.73-.9.24-.02.46-.28.69-.42-.2-.15-.4-.41-.61-.42-.39-.02-.81.05-1.17.18-.98.36-1.92.79-2.91,1.14-.63.22-1.31.32-2.09.5.66.79,1.41,1.03,2.3.99-.03-.28-.06-.53-.09-.86.64.14,1.07.72,1.66.23-.05-.23-.09-.45-.15-.79.54.12.99.22,1.64.36ZM25.99,12.17s-.1-.06-.15-.09c-.3.45-.62.89-.89,1.35-.19.32-.49.69-.42.99.2.93.56,1.84.88,2.84.39-.53.9-.93.99-1.39.09-.48-.23-1.02-.4-1.67-.35.43-.6.74-.85,1.06-.09-.04-.18-.09-.27-.13.23-.45.52-.88.69-1.35.19-.52.29-1.07.43-1.61ZM52.81,17.15c.26-.64.58-1.29.79-1.96.11-.36.18-.82.03-1.15-.31-.68-.78-1.31-1.19-1.96-.09.03-.17.07-.26.1.37,1.01.74,2.03,1.11,3.04-.07.03-.14.06-.2.08-.25-.31-.5-.62-.77-.95-.62,1.09-.79,2.06.49,2.8Z"/>
      <path class="cls-1" d="M50.51,62.8c-.48,1.08-.96,2.16-1.49,3.34,1.13-.46,2.28-.87,3.36-1.4.24-.12.31-.6.36-.93.2-1.34.65-2.58,1.75-3.56.32-.28.73-.48,1.24-.81.15,1.5-.21,2.74-.73,4.05,1.03-.67,2.08-1.32,3.07-2.03.19-.14.22-.54.2-.82-.07-1.4.07-2.75.98-3.94.25-.33.57-.61.97-1.02.46,1.41.41,2.64.28,4,.77-.76,1.55-1.5,2.29-2.28.1-.11,0-.4-.04-.6-.31-1.46-.44-2.91.32-4.29.23-.41.57-.78.96-1.28.63,1.49.76,2.82.67,4.23.51-.63,1.06-1.24,1.51-1.9.15-.23.12-.62.03-.9-.5-1.61-.73-3.19.22-4.74.14-.23.33-.43.57-.74.71,1.24.96,2.42.89,3.67.08.02.15.05.23.07.47-.92.96-1.83,1.39-2.76.06-.13-.14-.38-.25-.55-.79-1.19-1.26-2.44-1.09-3.84.05-.4.19-.8.34-1.39,1.36,1,1.63,2.31,2.21,3.58.39-1.04.78-2,1.11-2.97.07-.2-.04-.49-.17-.68-.94-1.38-1.6-2.82-1.24-4.48.07-.32.22-.63.37-1.07,1.05.92,1.54,1.94,1.9,3.04.06,0,.13,0,.19,0,.26-1.29.55-2.57.75-3.87.03-.22-.3-.51-.52-.72-1.25-1.21-2.01-2.58-1.91-4.26.01-.22.07-.44.12-.79,1.26.64,1.86,1.63,2.52,2.58.09,0,.17-.02.26-.03,0-1.23-.08-2.47.02-3.7.1-1.24-.47-1.99-1.57-2.73-1.28-.85-1.93-2.13-1.85-3.78,1.31.39,2.16,1.16,3.14,2.14-.07-.52-.09-.85-.15-1.17-.26-1.3-.5-2.61-.82-3.9-.06-.25-.4-.52-.68-.64-1.29-.52-2.51-1.13-3.21-2.3-.27-.45-.39-.96-.59-1.45.07-.06.15-.13.22-.19.55.2,1.12.37,1.65.6.52.23,1,.53,1.65.72-.52-1.25-.98-2.53-1.6-3.74-.23-.45-.83-.75-1.25-1.12-.98-.88-1.4-1.99-1.55-3.19-.03-.24.07-.49.12-.83,1.6.78,2.78,1.8,3.13,3.29.37,1.59.83,3.14,1.53,4.64.05.1.12.19.13.19.48-.85.97-1.71,1.45-2.58.1.02.21.04.31.06.12.39.28.77.34,1.16.24,1.55.25,3.06-.91,4.39-.12.14-.19.39-.16.56.29,1.56.6,3.11.92,4.66.01.06.07.11.15.22.46-.99.91-1.95,2.24-2.54.03.73.12,1.34.05,1.94-.16,1.35-.49,2.66-1.77,3.59-.14.1-.28.3-.28.46-.02,1.64-.01,3.28-.01,4.98.39-.41.7-.83,1.11-1.14.41-.31.91-.53,1.47-.7-.13,1.84-.48,3.55-2.29,4.65-.46.28-.73.58-.81,1.09-.19,1.14-.45,2.28-.7,3.47.95-.64,1.78-1.4,3.05-1.35-.05,1.21-1.57,3.72-3.36,4.1-.49.11-.67.3-.78.71-.13.51-.35,1-.57,1.59.84-.34,1.59-.64,2.5-1-.05,1.16-.6,1.94-1.13,2.71-.61.88-1.49,1.46-2.62,1.73-.18.04-.42.13-.5.26-.45.74-.86,1.5-1.36,2.37,1.13-.49,2.13-.85,3.27-.55-.4,1.27-2.48,3.03-3.86,3.01-1.31-.02-1.67.74-2.2,1.53.95-.06,1.86-.37,2.84.11-1.2,1.4-2.45,2.56-4.5,2.56-.58,0-.94.15-1.32.55-.48.5-1.07.91-1.56,1.44,1.06-.02,2.07-.16,2.99.35-.95,1.47-3.38,2.42-5.11,2-.51-.12-.87-.06-1.26.25-.6.47-1.25.88-1.95,1.36.92.29,1.96.27,2.77,1.08-.5.26-.92.52-1.37.7-1.38.56-2.78.72-4.16-.01-.66-.35-1.06.21-1.56.35-.75.21-1.44.6-2.23.95,1.01.36,2.07.59,2.85,1.54-.59.17-1.07.38-1.57.44-1.53.2-3,.11-4.2-.94-.13-.11-.37-.2-.54-.18-.61.08-1.2.22-1.84.34,0,.91.6,1.86-.52,2.66,1,.16,1.89.3,2.8.45-.24.59-1.52.55-1.21,1.39.2.55.72,1,1.14,1.56-1.75.02-3.4-.36-4.93-1.22-1.58-.88-2.56-2.18-3.26-3.9-1.53,3.5-4.37,5-8.28,5.12.44-.57,1.02-1.04,1.17-1.6.2-.75-.78-.89-1.45-1.34,1.09-.17,2.03-.32,3.09-.49-.99-.64-.77-1.42-.56-2.16.13-.43-.01-.57-.45-.68-.75-.19-1.34-.25-2.04.32-1.26,1.02-3.96.91-5.23.11.68-.85,1.73-1.08,2.82-1.45-.17-.11-.28-.22-.42-.28-.83-.33-1.65-.68-2.49-.96-.29-.1-.71-.13-.97,0-1.76.82-4.26.18-5.55-1.01,1.01-.32,1.92-.6,2.9-.91-.8-.55-1.59-1.11-2.42-1.64-.14-.09-.44,0-.65.06-1.91.53-4.41-.65-5.23-2,.9-.59,1.92-.32,3.1-.29-.76-.72-1.39-1.37-2.08-1.95-.16-.14-.54-.1-.81-.1-1.99.02-3.19-1.12-4.35-2.33-.07-.07-.06-.21-.11-.43h2.82c-.3-.43-.6-.9-.97-1.34-.08-.1-.37-.08-.57-.09-1.92-.05-3.94-1.39-4.53-3.06,1.17-.36,2.19.07,3.37.55-.48-.87-.86-1.61-1.31-2.33-.1-.16-.4-.28-.63-.32-2.14-.39-3.61-2.92-3.62-4.24,1.02-.12,1.7.49,2.57.98-.25-.76-.45-1.43-.71-2.07-.06-.15-.33-.26-.53-.32-1.79-.54-3.36-2.4-3.5-4.24,1.31-.01,2.12.8,3.1,1.48-.26-1.38-.49-2.68-.77-3.97-.04-.18-.3-.36-.5-.47-2.03-1.12-2.43-2.92-2.64-4.93,1.33.24,1.97,1.1,2.74,1.99,0-.49,0-.87,0-1.24.02-1.09.03-2.18.08-3.27.02-.44-.05-.75-.47-1.08-1.29-1-1.6-2.38-1.61-3.84,0-.49.06-.99.11-1.59,1.36.58,1.78,1.59,2.3,2.63.13-.68.26-1.37.4-2.05.2-.91.46-1.81.58-2.73.05-.34-.14-.76-.36-1.06-1.24-1.7-.81-3.44-.32-5.35,1.25.77,1.37,1.92,1.8,3.09.45-1.68,1.38-3.03,1.53-4.66.17-1.82,1.57-2.99,3.38-3.92.25,1,0,1.84-.41,2.63-.25.48-.57.99-1.01,1.31-1.26.91-1.79,2.18-2.32,3.46-.19.45-.34.91-.53,1.44,1.12-.45,2.16-.87,3.2-1.29.06.08.11.15.17.23-.15,1.09-.75,1.98-1.72,2.64-.61.41-1.35.68-2.01,1.04-.25.14-.6.31-.65.52-.39,1.6-.73,3.21-1.1,4.92,1.07-.69,2-1.28,3.06-1.97.24,1.1-.07,1.93-.62,2.6-.61.75-1.45,1.35-2.18,2.03-.19.17-.5.37-.51.56-.04,1.66-.02,3.32-.02,5.03.84-.84,1.62-1.63,2.4-2.42.09.05.18.1.27.15.28,1.18.05,2.31-.63,3.36-.35.54-.78,1.04-1.26,1.49-.39.36-.49.71-.39,1.19.24,1.09.43,2.19.64,3.33.63-.99,1.23-1.93,1.91-3,.7.93.73,1.82.52,2.63-.25.98-.81,1.89-1.18,2.84-.13.34-.24.76-.15,1.09.26.86.64,1.7,1.04,2.7.42-1.34.88-2.49,2.09-3.52.16.54.35.93.39,1.33.13,1.36-.2,2.64-1.07,3.77-.32.42-.35.79-.09,1.22.39.65.75,1.31,1.14,2,.33-1.17.64-2.28,1.01-3.58.88.73,1.19,1.47,1.19,2.2.01,1.1-.24,2.2-.33,3.3-.03.34-.01.74.16,1.02.39.64.9,1.22,1.43,1.81-.19-1.4-.06-2.73.6-4.12.93.66,1.23,1.52,1.34,2.37.11.93.07,1.91-.11,2.83-.13.66-.02,1.1.52,1.53.55.45,1.04.96,1.56,1.44.07-.01.15-.03.22-.04v-3.67c1.09.34,1.45,1.07,1.63,1.75.28,1.07.3,2.19.47,3.28.04.26.15.59.36.74.93.66,1.9,1.26,2.81,1.85-.26-1.22-.51-2.44-.81-3.84,1.18.27,1.8.82,2.13,1.5.47.99.73,2.06,1.11,3.08.1.28.28.63.53.75,1.01.45,2.07.82,3.1,1.22-.49-1.1-.96-2.17-1.44-3.24l.22-.21c.43.13.91.2,1.3.41,1.22.68,1.91,1.74,2.38,2.92.41,1.02.66,1.18,2,1.19.32-1.13.62-1.3,1.96-1.02,1.12.24,2.17.64,3.4.15.53-.21,1.33.15,2.02.22.31.03.64.04.95-.02.65-.11,1.29-.33,1.95-.38,1.13-.09,1.38.13,1.44,1.09,1.4.15,1.96-.17,2.42-1.3.58-1.39,1.45-2.57,3.1-3.11.16-.05.34-.06.5-.08.08.06.16.11.23.17ZM44.86,72.71c.17-.53.34-1.07.54-1.7-.4.07-.72.12-1.03.18-.15-.12-.3-.34-.45-.35-.98-.05-1.82-.41-2.63-.86-.55-.31-1.12-.6-1.69-.89.87,1.03,1.71,2.08,3.13,2.57-.02.06-.04.11-.06.17-.26.05-.52.1-.78.16-.02.05-.04.09-.06.14,1.15.49,2.3.97,3.45,1.46.05-.06.11-.12.16-.18-.19-.23-.39-.46-.58-.69ZM31.01,73.5c3.53-.83,3.52-.82,4.16-1.55-.25-.05-.5-.1-.75-.15.12-.18.25-.36.37-.55.05-.08.09-.22.14-.23,1.14-.11,1.47-1.09,2.2-1.64-.25.1-.46.25-.69.38-.21.11-.43.22-.65.29-.35.11-.72.16-1.06.27-.41.14-.79.38-1.21.47-.74.16-1.49.24-2.3.36.91,1.08.89,1.24-.2,2.34ZM38.46,68.64c.53-.18,1.09-.28,1.55-.54.71-.4.68-.89-.02-1.29-.98-.56-2.03-.51-3.04-.13-.85.32-.91,1.03-.12,1.45.47.25,1.04.33,1.63.5ZM36.15,68.21c-.02-.07-.04-.13-.06-.2-.33.01-.68.08-.99.03-.27-.04-.74-.28-.73-.33.12-.43-.29-.29-.44-.34-.31-.1-.64-.12-.95-.17-.1.43-.22.86-.29,1.3-.18,1.28.5,1.69,1.91,1.18.07-.03.2.06.26.04.61-.26,1.2-.54,1.81-.82-.04-.07-.08-.14-.12-.21-.51.08-1.03.16-1.54.24-.5.08-1,.16-1.51.24-.02-.09-.04-.17-.06-.26.89-.23,1.79-.46,2.68-.69ZM42.15,69.68c.23.12.41.22.61.3.6.23,1.51-.13,1.43-.59-.09-.57-.37-1.13-.38-1.69,0-.84-.44-.42-.8-.29-.19.07-.38.13-.63.22-.06.13-.16.38-.28.67.05.09.13.23.21.37.02.04.07.06.12.08q.63.25.09.66c-.11.08-.22.17-.37.29ZM41.64,69.64c-.09-.39-.09-.7-.19-.73-.49-.14-1.01-.2-1.51-.28-.02.05-.03.1-.05.15.5.25,1.01.5,1.75.86ZM39.96,70.49l-.11.1c.54.51,1.08,1.03,1.61,1.54l.15-.13c-.55-.5-1.1-1.01-1.65-1.51Z"/>
      <path class="cls-1" d="M20.28,16.1c-.68.81-.75,1.96-.21,2.58.07-.84.13-1.62.21-2.58ZM21.4,17.51c-.6.64-.59,1.31-.09,1.77.03-.61.06-1.19.09-1.77ZM18.3,21.88c.08,0,.16,0,.23,0v-1.45h-.23v1.45Z"/>
      <path class="cls-1" d="M58.13,18.78c.59-.8.5-1.99-.18-2.48.06.82.12,1.61.18,2.48ZM57.11,17.69c-.07,0-.14.01-.21.02v1.6h.21v-1.62ZM59.93,20.5c-.11,0-.22,0-.33,0v1.45c.08,0,.17,0,.25,0,.03-.49.06-.97.09-1.46Z"/>
      <path class="cls-1" d="M58.31,26.43c.1.05.2.09.3.14.22-.56.44-1.12.66-1.69-.1-.03-.2-.07-.3-.1-.22.55-.44,1.1-.66,1.65ZM55.59,27.75c.12.04.23.07.35.11.15-.51.31-1.02.46-1.53-.09-.02-.17-.04-.26-.07-.19.5-.37.99-.56,1.49ZM59.95,25.6l.4.07c.07-.47.14-.93.21-1.4-.09-.01-.18-.02-.27-.04-.11.45-.22.91-.33,1.36ZM57.26,26.92c.09.02.18.04.27.07.14-.43.28-.86.42-1.29-.11-.03-.21-.05-.32-.08-.12.44-.24.87-.36,1.31Z"/>
      <path class="cls-2" d="M36.66,20.49v-1.42c-1.37,0-2.69-.04-4,.02-.76.04-.89-.25-.91-.84-.02-.66.38-.61.89-.61,1.89.02,3.77,0,5.78,0-.19-.54-.36-1-.53-1.5h2.64c-.16.52-.29.95-.45,1.48h6.67c.03.28.05.48.08.68.1.62-.21.81-.88.79-1.34-.04-2.68-.01-4.05-.01v1.47c1.18,0,2.33,0,3.48,0,1.19,0,1.2-.01,1.2,1.01,0,3.05-.02,6.09-.02,9.14,0,1,0,.99-1.11.96-.13,0-.25,0-.47,0v-6.38h-4.3v-3.01h-2.88v2.97c-1.28,0-2.46.03-3.64-.01-.65-.02-.92.11-.9.76.04,1.67-.03,3.35,0,5.02.01.64-.35.63-.87.65-.57.02-.78-.11-.77-.65.05-3.28.08-6.55.08-9.83,0-.59.24-.7.82-.69,1.34.03,2.69,0,4.11,0ZM33.3,23.92c.87,0,1.62.02,2.36,0,.33-.01.9-.08.94-.22.13-.4.05-.86.02-1.3,0-.07-.19-.17-.29-.18-1-.01-1.99,0-3,0-.02.32-.04.5-.04.69,0,.3,0,.6,0,1.03ZM41.97,22.26q-.31,1.69,1.46,1.68c.36,0,.73.04,1.08-.02.19-.04.45-.24.48-.4.07-.4.02-.82.02-1.26h-3.04ZM40.61,19.06c-.77,0-1.46,0-2.16,0-.45,0-.63.15-.63.58,0,.87.06.94,1.05.91.56-.02,1.12,0,1.73,0v-1.49Z"/>
      <path class="cls-2" d="M39.15,31.22c-1.27,0-2.54-.03-3.8.01-.63.02-.81-.18-.79-.72.04-1.09.02-2.18,0-3.27,0-.46.17-.67.72-.66,2.59.02,5.17.03,7.76.02.48,0,.63.15.62.57-.02,1.16-.03,2.32-.01,3.48,0,.46-.19.59-.7.58-1.27-.03-2.53-.01-3.8-.01,0,0,0,0,0,0ZM42.02,28.06c-1.43,0-2.79.02-4.15,0-1.67-.03-1.72,0-1.53,1.49,0,.02.03.03.1.11h5.58v-1.6Z"/>
      <path class="cls-1" d="M35.79,15.49v-.97c2.13,0,4.19-.01,6.25.02.16,0,.46.34.43.45-.06.2-.33.48-.52.48-1.27.04-2.53.02-3.8.02-.77,0-1.54,0-2.36,0Z"/>
      <path class="cls-1" d="M28.89,10.77c-.57.69-1.14,1.38-1.79,2.18-.09-.73.95-2.02,1.79-2.18Z"/>
      <path class="cls-1" d="M49.76,10.63c.56.68,1.13,1.36,1.69,2.04-.09.07-.19.13-.28.2-.58-.67-1.15-1.33-1.73-2,.11-.08.22-.16.32-.24Z"/>
      <path class="cls-1" d="M20.28,16.1c-.08.96-.14,1.74-.21,2.58-.54-.62-.47-1.77.21-2.58Z"/>
      <path class="cls-1" d="M21.4,17.51c-.03.58-.06,1.16-.09,1.77-.49-.46-.5-1.13.09-1.77Z"/>
      <path class="cls-1" d="M18.3,21.88v-1.45h.23v1.45c-.08,0-.16,0-.23,0Z"/>
      <path class="cls-1" d="M58.13,18.78c-.06-.86-.12-1.65-.18-2.48.68.49.77,1.68.18,2.48Z"/>
      <path class="cls-1" d="M57.11,17.69v1.62h-.21v-1.6c.07,0,.14-.01.21-.02Z"/>
      <path class="cls-1" d="M59.93,20.5c-.03.49-.06.97-.09,1.46-.08,0-.17,0-.25,0v-1.45c.11,0,.22,0,.33,0Z"/>
      <path class="cls-1" d="M58.31,26.43c.22-.55.44-1.1.66-1.65.1.03.2.07.3.1-.22.56-.44,1.12-.66,1.69-.1-.05-.2-.09-.3-.14Z"/>
      <path class="cls-1" d="M55.59,27.75c.19-.5.37-.99.56-1.49.09.02.17.04.26.07-.15.51-.31,1.02-.46,1.53-.12-.04-.23-.07-.35-.11Z"/>
      <path class="cls-1" d="M59.95,25.6c.11-.45.22-.91.33-1.36.09.01.18.02.27.04-.07.47-.14.93-.21,1.4l-.4-.07Z"/>
      <path class="cls-1" d="M57.26,26.92c.12-.44.24-.87.36-1.31.11.03.21.05.32.08-.14.43-.28.86-.42,1.29-.09-.02-.18-.04-.27-.07Z"/>
      <path class="cls-1" d="M19.79,26.4c-.84-.33-.75-1.01-.9-1.61.07-.03.15-.05.22-.08.23.56.45,1.12.68,1.69Z"/>
      <path class="cls-1" d="M21.96,26.17c.17.53.34,1.07.5,1.6-.12.03-.23.06-.35.08-.16-.54-.32-1.07-.48-1.61.11-.02.22-.05.33-.07Z"/>
      <path class="cls-1" d="M18.19,25.63c-.74-.47-.86-.92-.45-1.62.15.55.28,1.01.45,1.62Z"/>
      <path class="cls-1" d="M54.58,18.47c-.13-.55-.25-1.1-.4-1.75.78.36.97,1.05.4,1.75Z"/>
      <path class="cls-1" d="M23.58,18.43c-.53-.91-.34-1.51.51-1.69-.18.61-.35,1.15-.51,1.69Z"/>
    </g>
  </g>
</svg>